<svg width="58" height="46" viewBox="0 0 58 46" fill="none" xmlns="http://www.w3.org/2000/svg">
<g clip-path="url(#clip0_706_2223)">
<path d="M57 0H1C0.448 0 0 0.447 0 1V45C0 45.553 0.448 46 1 46H57C57.552 46 58 45.553 58 45V1C58 0.447 57.552 0 57 0ZM56 44H2V2H56V44Z" fill="#4E1E18"/>
<path d="M15.9997 22.138C19.0707 22.138 21.5687 19.64 21.5687 16.57C21.5687 13.498 19.0707 11 15.9997 11C12.9287 11 10.4307 13.498 10.4307 16.569C10.4307 19.64 12.9287 22.138 15.9997 22.138ZM15.9997 13C17.9677 13 19.5687 14.602 19.5687 16.569C19.5687 18.536 17.9677 20.138 15.9997 20.138C14.0317 20.138 12.4307 18.537 12.4307 16.57C12.4307 14.603 14.0317 13 15.9997 13Z" fill="#4E1E18"/>
<path d="M6.99955 40C7.23355 40 7.46955 39.918 7.65955 39.751L23.9725 25.389L34.2745 35.69C34.6655 36.081 35.2975 36.081 35.6885 35.69C36.0795 35.299 36.0795 34.667 35.6885 34.276L30.8815 29.469L40.0625 19.415L51.3235 29.738C51.7305 30.111 52.3635 30.083 52.7365 29.676C53.1095 29.269 53.0825 28.636 52.6745 28.263L40.6745 17.263C40.4785 17.084 40.2175 16.995 39.9545 17.001C39.6895 17.013 39.4395 17.13 39.2605 17.326L29.4665 28.053L24.7235 23.31C24.3495 22.937 23.7515 22.918 23.3555 23.266L6.33855 38.249C5.92355 38.614 5.88355 39.246 6.24855 39.661C6.44655 39.886 6.72255 40 6.99955 40Z" fill="#4E1E18"/>
</g>
<defs>
<clipPath id="clip0_706_2223">
<rect width="58" height="46" fill="white"/>
</clipPath>
</defs>
</svg>
