<svg width="430" height="291" viewBox="0 0 430 291" fill="none" xmlns="http://www.w3.org/2000/svg">
<g filter="url(#filter0_d_19_413)">
<path d="M49.6869 236.941H63.0682C65.4189 222.358 68.6542 216.074 78.1221 208.566C101.539 200.22 102.376 200.22 122.448 208.566C131.772 218.06 134.44 224.364 138.338 236.941H312.295C314.646 222.358 317.881 216.074 327.349 208.566C350.766 200.22 351.602 200.22 371.674 208.566C380.999 218.06 383.667 224.364 387.565 236.941H402.619C408.603 225.385 411.403 217.811 414.327 200.22C413.845 187.086 414.547 184.19 407.637 166.003L379.201 153.484L330.694 58.3435C298.928 35.5861 280.013 24.598 243.716 9.10411C172.016 8.31305 132.515 11.9068 63.0682 24.1263C48.3889 40.9862 42.8392 51.185 36.3056 65.8546C19.579 103.41 20.4906 115.839 16.2336 146.808C14.9194 173.162 19.579 197.716 19.579 197.716C21.6132 207.937 23.6309 213.762 29.6149 224.422L49.6869 236.941Z" fill="#D6CE99"/>
<path d="M49.6869 236.941H63.0682C65.4189 222.358 68.6542 216.074 78.1221 208.566C101.539 200.22 102.376 200.22 122.448 208.566C131.772 218.06 134.44 224.364 138.338 236.941H312.295C314.646 222.358 317.881 216.074 327.349 208.566C350.766 200.22 351.602 200.22 371.674 208.566C380.999 218.06 383.667 224.364 387.565 236.941H402.619C408.603 225.385 411.403 217.811 414.327 200.22C413.845 187.086 414.547 184.19 407.637 166.003L379.201 153.484L330.694 58.3435C298.928 35.5861 280.013 24.598 243.716 9.10411C172.016 8.31305 132.515 11.9068 63.0682 24.1263C48.3889 40.9862 42.8392 51.185 36.3056 65.8546C19.579 103.41 20.4906 115.839 16.2336 146.808C14.9194 173.162 19.579 197.716 19.579 197.716C21.6132 207.937 23.6309 213.762 29.6149 224.422L49.6869 236.941Z" fill="url(#paint0_linear_19_413)" fill-opacity="0.4"/>
<path d="M49.6869 236.941H63.0682C65.4189 222.358 68.6542 216.074 78.1221 208.566C101.539 200.22 102.376 200.22 122.448 208.566C131.772 218.06 134.44 224.364 138.338 236.941H312.295C314.646 222.358 317.881 216.074 327.349 208.566C350.766 200.22 351.602 200.22 371.674 208.566C380.999 218.06 383.667 224.364 387.565 236.941H402.619C408.603 225.385 411.403 217.811 414.327 200.22C413.845 187.086 414.547 184.19 407.637 166.003L379.201 153.484L330.694 58.3435C298.928 35.5861 280.013 24.598 243.716 9.10411C172.016 8.31305 132.515 11.9068 63.0682 24.1263C48.3889 40.9862 42.8392 51.185 36.3056 65.8546C19.579 103.41 20.4906 115.839 16.2336 146.808C14.9194 173.162 19.579 197.716 19.579 197.716C21.6132 207.937 23.6309 213.762 29.6149 224.422L49.6869 236.941Z" stroke="#071013" stroke-width="16.7536"/>
<mask id="mask0_19_413" style="mask-type:alpha" maskUnits="userSpaceOnUse" x="16" y="186" width="400" height="55">
<rect x="16.2335" y="186.867" width="399.766" height="53.4123" fill="#071013"/>
</mask>
<g mask="url(#mask0_19_413)">
<path d="M49.6869 236.941H63.0682C65.4189 222.358 68.6542 216.074 78.1221 208.566C101.539 200.22 102.376 200.22 122.448 208.566C131.772 218.06 134.44 224.364 138.338 236.941H312.295C314.646 222.358 317.881 216.074 327.349 208.566C350.766 200.22 351.602 200.22 371.674 208.566C380.999 218.06 383.667 224.364 387.565 236.941H402.619C408.603 225.385 411.403 217.811 414.327 200.22C413.845 187.086 414.547 184.19 407.637 166.003L379.201 153.484L330.694 58.3435C298.928 35.5861 280.013 24.598 243.716 9.10411C172.016 8.31305 132.515 11.9068 63.0682 24.1263C48.3889 40.9862 42.8392 51.185 36.3056 65.8546C19.579 103.41 20.4906 115.839 16.2336 146.808C14.9194 173.162 19.579 197.716 19.579 197.716C21.6132 207.937 23.6309 213.762 29.6149 224.422L49.6869 236.941Z" fill="#071013" stroke="#071013" stroke-width="3.35072"/>
</g>
</g>
<g filter="url(#filter1_d_19_413)">
<ellipse cx="101.539" cy="236.941" rx="40.1439" ry="40.0592" fill="#F6F0EA"/>
<path d="M135.82 236.941C135.82 255.815 120.483 271.136 101.539 271.136C82.5953 271.136 67.2593 255.815 67.2593 236.941C67.2593 218.067 82.5953 202.745 101.539 202.745C120.483 202.745 135.82 218.067 135.82 236.941Z" stroke="#071013" stroke-width="11.7275"/>
</g>
<g filter="url(#filter2_d_19_413)">
<ellipse cx="352.439" cy="236.941" rx="40.1439" ry="40.0592" fill="#F6F0EA"/>
<path d="M386.719 236.941C386.719 255.815 371.383 271.136 352.439 271.136C333.495 271.136 318.159 255.815 318.159 236.941C318.159 218.067 333.495 202.745 352.439 202.745C371.383 202.745 386.719 218.067 386.719 236.941Z" stroke="#071013" stroke-width="11.7275"/>
</g>
<path d="M161.952 201.068L148.058 208.293L115.536 149.396C113.231 145.659 112.096 144.839 110.671 143.464C109.246 142.089 99.3693 135.354 93.9474 132.415C92.3781 130.762 90.7268 126.685 90.1708 124.506C89.7208 122.742 89.9322 118.636 90.2846 114.574C90.2377 111.777 93.3298 103.94 95.5099 100.221C96.744 104.163 99.3036 112.493 99.6699 114.277C100.036 116.061 101.931 118.156 102.832 118.98C107.904 120.573 114.167 117.905 116.664 116.371C117.59 115.889 119.793 114.109 121.196 110.841L116.312 95.3982C123.441 99.3071 128.973 106.562 130.848 109.701C132.332 111.867 134.631 118.029 131.951 125.346C129.27 132.664 131.817 142.458 133.426 146.44L161.952 201.068Z" fill="#071013"/>
<path d="M206.514 203.382L206.952 201.414C206.271 194.506 206.601 190.684 207.829 183.915C208.068 174.967 207.296 169.986 204.541 161.168V137.546L205.856 134.265V132.734H204.102V129.453H200.157L199.938 53.3362H197.965V129.453H194.02V132.734H192.266V134.265L193.581 137.546V161.168C190.942 171.209 190.05 176.188 190.513 183.915C191.301 191.076 191.629 195.02 191.17 201.414L191.609 203.382C194.074 207.04 195.715 208.225 199.28 208.194C202.562 207.931 204.132 206.829 206.514 203.382Z" fill="#071013"/>
<path d="M248.23 169.389L251.136 161.18C252.088 158.493 255.038 157.084 257.727 158.031L267.426 161.451C270.114 162.399 271.522 165.346 270.571 168.033L267.664 176.241C266.713 178.928 263.762 180.338 261.074 179.39L251.374 175.97C248.686 175.022 247.278 172.076 248.23 169.389Z" fill="#071013"/>
<path d="M271.551 150.09L262.553 146.917C259.575 145.867 258.144 142.348 259.991 139.785C260.829 138.624 261.769 137.499 262.999 136.167C267.992 131.543 271.356 129.454 278.81 127.017C285.726 125.328 289.468 123.787 295.962 120.249C299.134 117.091 300.326 114.737 301.611 109.697C301.567 106.206 300.994 104.19 298.599 100.455C295.949 97.3268 293.891 96.0157 289.255 94.4329C285.323 93.3528 282.964 93.0338 277.936 93.9867C273.623 95.7052 271.006 97.1653 268.787 99.6314C267.084 101.524 264.462 102.499 262.107 101.536L252.225 97.494C249.37 96.3261 248.083 92.8705 249.853 90.3424C250.369 89.6055 250.943 88.8479 251.641 87.9871C255.374 83.5513 257.727 81.2016 264.364 78.2938C272.135 75.6368 276.512 74.908 284.374 75.8054C297.2 77.8368 302.938 80.9346 312.024 88.0093C319.735 95.1217 321.773 99.7888 322.649 108.935C321.844 117.781 320.572 122.329 315.524 129.056C309.534 135.942 299.643 137.934 287.179 141.966C283.255 143.723 280.663 145.105 278.778 147.367C276.976 149.529 274.204 151.025 271.551 150.09Z" fill="#071013"/>
<defs>
<filter id="filter0_d_19_413" x="0.921846" y="0.623337" width="428.509" height="258.097" filterUnits="userSpaceOnUse" color-interpolation-filters="sRGB">
<feFlood flood-opacity="0" result="BackgroundImageFix"/>
<feColorMatrix in="SourceAlpha" type="matrix" values="0 0 0 0 0 0 0 0 0 0 0 0 0 0 0 0 0 0 127 0" result="hardAlpha"/>
<feOffset dy="6.70145"/>
<feGaussianBlur stdDeviation="3.35072"/>
<feComposite in2="hardAlpha" operator="out"/>
<feColorMatrix type="matrix" values="0 0 0 0 0 0 0 0 0 0 0 0 0 0 0 0 0 0 0.25 0"/>
<feBlend mode="normal" in2="BackgroundImageFix" result="effect1_dropShadow_19_413"/>
<feBlend mode="normal" in="SourceGraphic" in2="effect1_dropShadow_19_413" result="shape"/>
</filter>
<filter id="filter1_d_19_413" x="54.6941" y="196.882" width="93.6907" height="93.5213" filterUnits="userSpaceOnUse" color-interpolation-filters="sRGB">
<feFlood flood-opacity="0" result="BackgroundImageFix"/>
<feColorMatrix in="SourceAlpha" type="matrix" values="0 0 0 0 0 0 0 0 0 0 0 0 0 0 0 0 0 0 127 0" result="hardAlpha"/>
<feOffset dy="6.70145"/>
<feGaussianBlur stdDeviation="3.35072"/>
<feComposite in2="hardAlpha" operator="out"/>
<feColorMatrix type="matrix" values="0 0 0 0 0 0 0 0 0 0 0 0 0 0 0 0 0 0 0.25 0"/>
<feBlend mode="normal" in2="BackgroundImageFix" result="effect1_dropShadow_19_413"/>
<feBlend mode="normal" in="SourceGraphic" in2="effect1_dropShadow_19_413" result="shape"/>
</filter>
<filter id="filter2_d_19_413" x="305.593" y="196.882" width="93.6907" height="93.5213" filterUnits="userSpaceOnUse" color-interpolation-filters="sRGB">
<feFlood flood-opacity="0" result="BackgroundImageFix"/>
<feColorMatrix in="SourceAlpha" type="matrix" values="0 0 0 0 0 0 0 0 0 0 0 0 0 0 0 0 0 0 127 0" result="hardAlpha"/>
<feOffset dy="6.70145"/>
<feGaussianBlur stdDeviation="3.35072"/>
<feComposite in2="hardAlpha" operator="out"/>
<feColorMatrix type="matrix" values="0 0 0 0 0 0 0 0 0 0 0 0 0 0 0 0 0 0 0.25 0"/>
<feBlend mode="normal" in2="BackgroundImageFix" result="effect1_dropShadow_19_413"/>
<feBlend mode="normal" in="SourceGraphic" in2="effect1_dropShadow_19_413" result="shape"/>
</filter>
<linearGradient id="paint0_linear_19_413" x1="205.245" y1="236.941" x2="201.913" y2="44.1557" gradientUnits="userSpaceOnUse">
<stop offset="0.137519"/>
<stop offset="0.311372" stop-opacity="0.472861"/>
<stop offset="0.950857" stop-color="#D6CE99"/>
</linearGradient>
</defs>
</svg>
