<svg width="56" height="39" viewBox="0 0 56 39" fill="none" xmlns="http://www.w3.org/2000/svg">
<g filter="url(#filter0_d_37_1394)">
<path d="M6.37929 31.695H8.11886C8.42446 29.7951 8.84505 28.9765 10.0759 27.9984C13.1201 26.9111 13.2288 26.9111 15.8382 27.9984C17.0504 29.2353 17.3972 30.0565 17.9039 31.695H40.5183C40.8239 29.7951 41.2445 28.9765 42.4754 27.9984C45.5196 26.9111 45.6283 26.9111 48.2377 27.9984C49.4498 29.2353 49.7966 30.0565 50.3034 31.695H52.2604C53.0383 30.1895 53.4024 29.2028 53.7826 26.9111C53.7198 25.2001 53.811 24.8228 52.9128 22.4535L49.2162 20.8227L42.9102 8.42822C38.7806 5.46351 36.3217 4.03203 31.603 2.01356C22.2821 1.91051 17.1469 2.37869 8.11887 3.97058C6.21056 6.167 5.4891 7.49565 4.63973 9.40673C2.46527 14.2993 2.58377 15.9184 2.03037 19.9529C1.85952 23.3861 2.46526 26.585 2.46526 26.585C2.72971 27.9164 2.99201 28.6753 3.76994 30.0641L6.37929 31.695Z" fill="#D6CE99"/>
<path d="M6.37929 31.695H8.11886C8.42446 29.7951 8.84505 28.9765 10.0759 27.9984C13.1201 26.9111 13.2288 26.9111 15.8382 27.9984C17.0504 29.2353 17.3972 30.0565 17.9039 31.695H40.5183C40.8239 29.7951 41.2445 28.9765 42.4754 27.9984C45.5196 26.9111 45.6283 26.9111 48.2377 27.9984C49.4498 29.2353 49.7966 30.0565 50.3034 31.695H52.2604C53.0383 30.1895 53.4024 29.2028 53.7826 26.9111C53.7198 25.2001 53.811 24.8228 52.9128 22.4535L49.2162 20.8227L42.9102 8.42822C38.7806 5.46351 36.3217 4.03203 31.603 2.01356C22.2821 1.91051 17.1469 2.37869 8.11887 3.97058C6.21056 6.167 5.4891 7.49565 4.63973 9.40673C2.46527 14.2993 2.58377 15.9184 2.03037 19.9529C1.85952 23.3861 2.46526 26.585 2.46526 26.585C2.72971 27.9164 2.99201 28.6753 3.76994 30.0641L6.37929 31.695Z" fill="url(#paint0_linear_37_1394)" fill-opacity="0.4"/>
<path d="M6.37929 31.695H8.11886C8.42446 29.7951 8.84505 28.9765 10.0759 27.9984C13.1201 26.9111 13.2288 26.9111 15.8382 27.9984C17.0504 29.2353 17.3972 30.0565 17.9039 31.695H40.5183C40.8239 29.7951 41.2445 28.9765 42.4754 27.9984C45.5196 26.9111 45.6283 26.9111 48.2377 27.9984C49.4498 29.2353 49.7966 30.0565 50.3034 31.695H52.2604C53.0383 30.1895 53.4024 29.2028 53.7826 26.9111C53.7198 25.2001 53.811 24.8228 52.9128 22.4535L49.2162 20.8227L42.9102 8.42822C38.7806 5.46351 36.3217 4.03203 31.603 2.01356C22.2821 1.91051 17.1469 2.37869 8.11887 3.97058C6.21056 6.167 5.4891 7.49565 4.63973 9.40673C2.46527 14.2993 2.58377 15.9184 2.03037 19.9529C1.85952 23.3861 2.46526 26.585 2.46526 26.585C2.72971 27.9164 2.99201 28.6753 3.76994 30.0641L6.37929 31.695Z" stroke="#071013" stroke-width="2.17446"/>
<mask id="mask0_37_1394" style="mask-type:alpha" maskUnits="userSpaceOnUse" x="2" y="25" width="52" height="8">
<rect x="2.0304" y="25.1716" width="51.9696" height="6.95828" fill="#071013"/>
</mask>
<g mask="url(#mask0_37_1394)">
<path d="M6.37929 31.695H8.11886C8.42446 29.7951 8.84505 28.9765 10.0759 27.9984C13.1201 26.9111 13.2288 26.9111 15.8382 27.9984C17.0504 29.2353 17.3972 30.0565 17.9039 31.695H40.5183C40.8239 29.7951 41.2445 28.9765 42.4754 27.9984C45.5196 26.9111 45.6283 26.9111 48.2377 27.9984C49.4498 29.2353 49.7966 30.0565 50.3034 31.695H52.2604C53.0383 30.1895 53.4024 29.2028 53.7826 26.9111C53.7198 25.2001 53.811 24.8228 52.9128 22.4535L49.2162 20.8227L42.9102 8.42822C38.7806 5.46351 36.3217 4.03203 31.603 2.01356C22.2821 1.91051 17.1469 2.37869 8.11887 3.97058C6.21056 6.167 5.4891 7.49565 4.63973 9.40673C2.46527 14.2993 2.58377 15.9184 2.03037 19.9529C1.85952 23.3861 2.46526 26.585 2.46526 26.585C2.72971 27.9164 2.99201 28.6753 3.76994 30.0641L6.37929 31.695Z" fill="#071013" stroke="#071013" stroke-width="0.434892"/>
</g>
</g>
<g filter="url(#filter1_d_37_1394)">
<circle cx="13.1201" cy="31.695" r="5.21871" fill="#F6F0EA"/>
<circle cx="13.1201" cy="31.695" r="4.45765" stroke="#071013" stroke-width="1.52212"/>
</g>
<g filter="url(#filter2_d_37_1394)">
<circle cx="45.737" cy="31.695" r="5.21871" fill="#F6F0EA"/>
<circle cx="45.737" cy="31.695" r="4.45765" stroke="#071013" stroke-width="1.52212"/>
</g>
<path d="M20.9737 27.0217L19.1675 27.9629L14.9396 20.2901C14.6399 19.8032 14.4924 19.6964 14.3072 19.5173C14.122 19.3382 12.838 18.4608 12.1331 18.0778C11.9291 17.8626 11.7144 17.3314 11.6421 17.0475C11.5836 16.8177 11.6111 16.2828 11.6569 15.7536C11.6508 15.3893 12.0528 14.3684 12.3362 13.8838C12.4967 14.3974 12.8294 15.4826 12.877 15.715C12.9246 15.9474 13.1709 16.2202 13.2881 16.3276C13.9475 16.5352 14.7616 16.1875 15.0862 15.9878C15.2066 15.925 15.4931 15.6931 15.6754 15.2673L15.0405 13.2555C15.9673 13.7647 16.6864 14.7099 16.9301 15.1188C17.1231 15.401 17.422 16.2038 17.0736 17.157C16.7251 18.1103 17.0562 19.3862 17.2653 19.905L20.9737 27.0217Z" fill="#071013"/>
<path d="M26.7668 27.3231L26.8238 27.0666C26.7353 26.1668 26.7781 25.6689 26.9378 24.7871C26.9689 23.6213 26.8685 22.9725 26.5104 21.8237V18.7463L26.6813 18.3188V18.1194H26.4534V17.692H25.9405L25.912 7.77588H25.6555V17.692H25.1426V18.1194H24.9147V18.3188L25.0856 18.7463V21.8237C24.7425 23.1317 24.6266 23.7803 24.6867 24.7871C24.7892 25.7199 24.8319 26.2337 24.7722 27.0666L24.8292 27.3231C25.1497 27.7997 25.363 27.954 25.8265 27.95C26.2531 27.9156 26.4573 27.7721 26.7668 27.3231Z" fill="#071013"/>
<path d="M33.3239 24.0083L33.1344 23.9413C32.489 23.7133 32.1507 23.0053 32.3788 22.3599C32.6068 21.7146 33.3148 21.3763 33.9602 21.6043L34.1496 21.6713C34.795 21.8993 35.1333 22.6073 34.9052 23.2527C34.6772 23.898 33.9692 24.2363 33.3239 24.0083Z" fill="#071013"/>
<path d="M34.6861 20.1912L34.6309 20.1717C33.9389 19.9272 33.6124 19.1062 34.1099 18.5667C34.759 17.9642 35.1963 17.6921 36.1652 17.3746C37.0644 17.1547 37.5508 16.9538 38.3951 16.4929C38.8074 16.0816 38.9624 15.7749 39.1295 15.1183C39.1237 14.6635 39.0492 14.4009 38.7379 13.9143C38.3934 13.5068 38.1259 13.3359 37.5231 13.1298C37.0119 12.989 36.7052 12.9475 36.0516 13.0716C35.7549 13.1901 35.5199 13.2992 35.3217 13.4232C34.7478 13.7824 34.0637 14.0837 33.4373 13.827L33.0666 13.675C32.505 13.4448 32.2515 12.7618 32.6333 12.29C33.1185 11.7122 33.4245 11.406 34.2873 11.0272C35.2975 10.6811 35.8665 10.5861 36.8886 10.7031C38.556 10.9677 39.302 11.3713 40.4831 12.2929C41.4855 13.2195 41.7504 13.8275 41.8644 15.019C41.7597 16.1714 41.5943 16.7639 40.9382 17.6402C40.1594 18.5373 38.8735 18.7969 37.2533 19.3222C36.9901 19.4402 36.773 19.5453 36.5909 19.6598C36.0142 20.0223 35.3283 20.4182 34.6861 20.1912Z" fill="#071013"/>
<defs>
<filter id="filter0_d_37_1394" x="0.0429352" y="0.912781" width="55.6999" height="33.609" filterUnits="userSpaceOnUse" color-interpolation-filters="sRGB">
<feFlood flood-opacity="0" result="BackgroundImageFix"/>
<feColorMatrix in="SourceAlpha" type="matrix" values="0 0 0 0 0 0 0 0 0 0 0 0 0 0 0 0 0 0 127 0" result="hardAlpha"/>
<feOffset dy="0.869785"/>
<feGaussianBlur stdDeviation="0.434892"/>
<feComposite in2="hardAlpha" operator="out"/>
<feColorMatrix type="matrix" values="0 0 0 0 0 0 0 0 0 0 0 0 0 0 0 0 0 0 0.25 0"/>
<feBlend mode="normal" in2="BackgroundImageFix" result="effect1_dropShadow_37_1394"/>
<feBlend mode="normal" in="SourceGraphic" in2="effect1_dropShadow_37_1394" result="shape"/>
</filter>
<filter id="filter1_d_37_1394" x="7.03158" y="26.4763" width="12.1769" height="12.177" filterUnits="userSpaceOnUse" color-interpolation-filters="sRGB">
<feFlood flood-opacity="0" result="BackgroundImageFix"/>
<feColorMatrix in="SourceAlpha" type="matrix" values="0 0 0 0 0 0 0 0 0 0 0 0 0 0 0 0 0 0 127 0" result="hardAlpha"/>
<feOffset dy="0.869785"/>
<feGaussianBlur stdDeviation="0.434892"/>
<feComposite in2="hardAlpha" operator="out"/>
<feColorMatrix type="matrix" values="0 0 0 0 0 0 0 0 0 0 0 0 0 0 0 0 0 0 0.25 0"/>
<feBlend mode="normal" in2="BackgroundImageFix" result="effect1_dropShadow_37_1394"/>
<feBlend mode="normal" in="SourceGraphic" in2="effect1_dropShadow_37_1394" result="shape"/>
</filter>
<filter id="filter2_d_37_1394" x="39.6485" y="26.4763" width="12.1769" height="12.177" filterUnits="userSpaceOnUse" color-interpolation-filters="sRGB">
<feFlood flood-opacity="0" result="BackgroundImageFix"/>
<feColorMatrix in="SourceAlpha" type="matrix" values="0 0 0 0 0 0 0 0 0 0 0 0 0 0 0 0 0 0 127 0" result="hardAlpha"/>
<feOffset dy="0.869785"/>
<feGaussianBlur stdDeviation="0.434892"/>
<feComposite in2="hardAlpha" operator="out"/>
<feColorMatrix type="matrix" values="0 0 0 0 0 0 0 0 0 0 0 0 0 0 0 0 0 0 0.25 0"/>
<feBlend mode="normal" in2="BackgroundImageFix" result="effect1_dropShadow_37_1394"/>
<feBlend mode="normal" in="SourceGraphic" in2="effect1_dropShadow_37_1394" result="shape"/>
</filter>
<linearGradient id="paint0_linear_37_1394" x1="26.6018" y1="31.695" x2="26.1669" y2="6.57993" gradientUnits="userSpaceOnUse">
<stop offset="0.137519"/>
<stop offset="0.311372" stop-opacity="0.472861"/>
<stop offset="0.950857" stop-color="#D6CE99"/>
</linearGradient>
</defs>
</svg>
